<?xml version="1.0" encoding="utf-8"?>
<!-- Generator: Adobe Illustrator 19.0.0, SVG Export Plug-In . SVG Version: 6.00 Build 0)  -->
<svg version="1.1" id="Layer_1" xmlns="http://www.w3.org/2000/svg" xmlns:xlink="http://www.w3.org/1999/xlink" x="0px" y="0px"
	 viewBox="-408 286.3 24 24" style="enable-background:new -408 286.3 24 24;" xml:space="preserve">
<style type="text/css">
	.st0{fill:#1A1A19;}
</style>
<path class="st0" d="M-394.6,298.3l4.6,4.6c0.4,0.4,0.4,1,0,1.4c-0.4,0.4-1,0.4-1.4,0l-5.4-5.4c-0.3-0.3-0.3-0.9,0-1.2l5.4-5.4
	c0.4-0.4,1-0.4,1.4,0c0.4,0.4,0.4,1,0,1.4L-394.6,298.3z"/>
<path class="st0" d="M-397.1,298.3l-4.6,4.6c-0.4,0.4-0.4,1,0,1.4c0.4,0.4,1,0.4,1.4,0l5.4-5.4c0.3-0.3,0.3-0.9,0-1.2l-5.4-5.4
	c-0.4-0.4-1-0.4-1.4,0c-0.4,0.4-0.4,1,0,1.4L-397.1,298.3z"/>
</svg>
